<?xml version="1.0" standalone="no"?>
<!DOCTYPE svg PUBLIC "-//W3C//DTD SVG 20010904//EN"
 "http://www.w3.org/TR/2001/REC-SVG-20010904/DTD/svg10.dtd">
<svg version="1.0" xmlns="http://www.w3.org/2000/svg"
 width="626.000000pt" height="455.000000pt" viewBox="0 0 626.000000 455.000000"
 preserveAspectRatio="xMidYMid meet">

<g transform="translate(0.000000,455.000000) scale(0.100000,-0.100000)"
fill="#000000" stroke="none">
<path d="M3881 3544 c0 -11 3 -14 6 -6 3 7 2 16 -1 19 -3 4 -6 -2 -5 -13z"/>
<path d="M4033 3485 c0 -22 2 -30 4 -17 2 12 2 30 0 40 -3 9 -5 -1 -4 -23z"/>
<path d="M3893 3465 c0 -27 2 -38 4 -22 2 15 2 37 0 50 -2 12 -4 0 -4 -28z"/>
<path d="M4023 3380 c0 -25 2 -35 4 -22 2 12 2 32 0 45 -2 12 -4 2 -4 -23z"/>
<path d="M3903 3355 c0 -22 2 -30 4 -17 2 12 2 30 0 40 -3 9 -5 -1 -4 -23z"/>
<path d="M4013 3270 c0 -25 2 -35 4 -22 2 12 2 32 0 45 -2 12 -4 2 -4 -23z"/>
<path d="M3913 3245 c0 -27 2 -38 4 -22 2 15 2 37 0 50 -2 12 -4 0 -4 -28z"/>
<path d="M3865 3180 c-14 -22 17 -35 93 -38 57 -3 82 0 97 12 30 22 8 39 -35
26 -31 -9 -86 -7 -132 6 -9 3 -19 0 -23 -6z"/>
<path d="M3860 3115 c0 -30 134 -46 185 -23 35 16 34 41 -1 28 -32 -13 -109
-13 -152 -1 -25 8 -32 7 -32 -4z"/>
<path d="M3410 2985 c-33 -30 -64 -55 -69 -55 -5 0 -23 8 -40 17 -23 14 -33
15 -42 6 -19 -19 -2 -62 26 -69 14 -3 25 -9 25 -11 0 -3 -18 -26 -41 -50 -22
-24 -46 -59 -54 -76 -17 -43 -30 -297 -15 -297 6 0 22 -12 37 -26 14 -14 26
-24 27 -22 3 5 90 140 98 151 4 7 12 6 24 -3 15 -13 22 -9 64 37 l48 52 28
-41 c16 -23 56 -62 89 -86 l60 -44 3 41 c2 22 -1 56 -7 76 -11 42 -19 46 128
-65 125 -95 122 -89 86 -195 -23 -65 -8 -53 27 23 20 43 39 71 48 72 24 0 40
21 40 53 l0 28 26 -20 c37 -29 44 -26 44 14 0 49 -24 101 -71 157 -33 39 -37
48 -22 48 46 0 58 62 20 98 -29 27 -134 67 -217 82 -99 18 -100 19 -47 46 51
27 57 38 28 54 -47 24 -175 8 -273 -34 -14 -7 -14 -2 4 33 20 41 18 61 -8 61
-8 0 -41 -25 -74 -55z"/>
<path d="M1708 2772 c-196 -195 -258 -263 -258 -282 0 -18 59 -83 242 -267
209 -210 247 -243 273 -243 25 0 64 35 282 253 195 194 253 258 253 277 0 19
-55 80 -238 263 -247 247 -257 257 -282 257 -8 0 -131 -116 -272 -258z m514
-29 c126 -125 228 -231 228 -235 0 -15 -63 -78 -78 -78 -18 0 -472 448 -472
464 0 16 63 76 79 76 9 0 118 -102 243 -227z m-332 32 c19 -20 22 -30 14 -42
-22 -35 -42 -39 -69 -13 -29 28 -31 37 -8 62 22 24 35 23 63 -7z m-95 -95 c28
-29 28 -30 10 -50 -23 -25 -33 -25 -62 2 -27 26 -28 35 -6 60 21 24 24 23 58
-12z m182 8 c29 -27 29 -45 1 -75 -27 -29 -36 -29 -65 -1 -29 27 -29 45 -1 75
27 29 36 29 65 1z m-71 -104 c16 -24 16 -26 -11 -54 -16 -17 -34 -30 -40 -30
-12 0 -65 51 -65 63 0 3 14 19 32 36 36 33 55 30 84 -15z m-191 -3 c19 -22 19
-22 -9 -49 l-27 -27 -30 34 -31 33 23 24 c24 25 39 22 74 -15z m362 7 c29 -27
29 -36 1 -65 -27 -29 -45 -29 -75 -1 -29 27 -29 36 -1 65 27 29 45 29 75 1z
m-275 -75 c35 -33 35 -40 1 -75 -34 -36 -45 -35 -78 3 -25 30 -25 32 -8 53 20
24 45 46 52 46 3 0 18 -12 33 -27z m185 -5 c29 -27 29 -45 1 -75 -27 -29 -45
-29 -75 -1 -29 27 -29 36 4 70 32 34 40 34 70 6z m-377 -13 c19 -20 22 -30 14
-42 -22 -36 -40 -38 -68 -8 -31 33 -31 33 -9 57 22 24 35 23 63 -7z m557 3
c30 -28 29 -38 -6 -72 l-30 -29 -32 32 -32 32 29 30 c33 35 41 36 71 7z m-455
-75 c35 -34 35 -43 -2 -78 l-30 -29 -30 29 c-37 36 -38 57 -2 84 34 26 31 26
64 -6z m193 -14 l26 -32 -27 -28 c-33 -35 -50 -36 -81 -7 -29 27 -29 36 4 70
34 36 45 35 78 -3z m176 1 c25 -25 28 -33 19 -50 -6 -11 -22 -27 -36 -36 -24
-16 -26 -16 -54 11 -17 16 -30 33 -30 39 0 12 51 66 63 66 5 0 22 -13 38 -30z
m183 -57 c-28 -37 -50 -40 -80 -12 -32 30 -30 42 8 74 l31 26 31 -30 30 -31
-20 -27z m-449 -33 l29 -30 -29 -30 c-16 -16 -34 -30 -40 -30 -6 0 -24 14 -40
30 l-29 30 29 30 c16 17 34 30 40 30 6 0 24 -13 40 -30z m179 1 c23 -24 26
-32 17 -49 -30 -56 -74 -58 -107 -6 -16 24 -16 26 11 54 36 37 44 37 79 1z
m168 2 c35 -33 35 -41 1 -70 -35 -30 -47 -29 -74 8 l-21 30 28 30 c15 16 30
29 33 29 3 0 18 -12 33 -27z m-257 -93 l29 -30 -21 -28 c-28 -38 -53 -38 -88
-2 l-29 30 29 30 c36 37 44 37 80 0z m167 3 c15 -15 28 -32 28 -37 0 -13 -135
-146 -148 -146 -4 0 -21 14 -37 30 l-29 30 74 75 c41 41 77 75 79 75 3 0 18
-12 33 -27z"/>
<path d="M2084 2788 l-19 -23 23 19 c21 18 27 26 19 26 -2 0 -12 -10 -23 -22z"/>
<path d="M2117 2794 c-12 -13 -7 -24 8 -18 18 7 20 -7 3 -24 -17 -17 -28 -15
-28 5 0 13 -3 14 -12 5 -9 -9 -9 -15 3 -27 14 -14 18 -13 39 10 21 23 22 27 9
40 -8 9 -18 12 -22 9z"/>
<path d="M2141 2727 c-19 -22 -20 -25 -6 -37 12 -10 19 -10 27 -2 9 9 8 12 -5
12 -20 0 -22 11 -5 28 17 17 31 15 24 -3 -5 -15 5 -20 17 -8 7 7 -11 33 -22
33 -4 0 -17 -11 -30 -23z"/>
<path d="M2187 2692 c-35 -39 -9 -67 29 -31 18 17 21 25 13 36 -15 17 -23 17
-42 -5z m37 -1 c3 -4 -3 -16 -13 -25 -22 -20 -40 -4 -21 19 14 17 26 19 34 6z"/>
<path d="M2225 2650 c-9 -10 -15 -26 -12 -35 7 -18 23 -20 33 -3 4 6 3 8 -4 4
-18 -11 -23 11 -6 28 17 17 39 12 28 -6 -4 -7 -2 -8 5 -4 9 6 9 11 0 22 -15
19 -23 18 -44 -6z"/>
<path d="M2285 2619 c-5 -7 -4 -10 3 -5 18 11 23 -11 6 -28 -17 -18 -38 -12
-28 7 5 9 4 9 -6 0 -14 -13 -6 -33 14 -33 7 0 21 9 31 20 17 19 17 22 3 36
-12 12 -17 13 -23 3z"/>
<path d="M2308 2558 c-14 -16 -15 -25 -6 -35 9 -12 16 -10 36 10 24 24 23 47
-1 47 -7 0 -20 -10 -29 -22z m42 3 c0 -13 -29 -35 -37 -28 -7 8 15 37 28 37 5
0 9 -4 9 -9z"/>
<path d="M2351 2517 c-19 -22 -20 -25 -6 -37 12 -10 19 -10 27 -2 9 9 8 12 -5
12 -20 0 -22 11 -5 28 17 17 28 15 28 -4 0 -8 5 -12 10 -9 8 5 7 11 -1 21 -16
19 -22 18 -48 -9z"/>
<path d="M3380 2465 c-19 -23 -2 -36 41 -29 33 6 44 3 64 -16 24 -22 45 -20
45 5 0 7 -12 23 -26 34 -32 25 -105 29 -124 6z"/>
<path d="M3703 2383 c-7 -2 -13 -13 -13 -24 0 -17 5 -18 40 -13 34 6 45 3 65
-16 14 -13 31 -20 39 -17 23 9 20 22 -15 51 -29 25 -81 34 -116 19z"/>
<path d="M3417 2373 c-22 -21 0 -63 33 -63 18 0 32 40 19 56 -12 15 -41 19
-52 7z"/>
<path d="M3717 2293 c-12 -11 -8 -40 7 -52 28 -23 68 17 45 45 -12 15 -41 19
-52 7z"/>
<path d="M3840 2196 c0 -2 7 -6 15 -10 8 -3 15 -1 15 4 0 6 -7 10 -15 10 -8 0
-15 -2 -15 -4z"/>
<path d="M3846 2135 c-11 -8 -15 -15 -9 -15 6 0 16 7 23 15 16 19 11 19 -14 0z"/>
<path d="M2813 2014 c-16 -16 -22 -29 -15 -33 5 -3 49 -78 97 -166 48 -88 92
-166 99 -173 9 -9 25 -11 49 -7 l35 7 -34 59 c-20 33 -32 65 -28 72 4 6 3 9
-1 4 -10 -9 -38 30 -66 93 -20 46 -98 170 -106 170 -2 0 -16 -12 -30 -26z"/>
<path d="M2911 1996 c7 -7 189 -9 196 -2 3 3 -40 6 -97 6 -57 0 -101 -2 -99
-4z"/>
<path d="M2733 1973 c9 -2 23 -2 30 0 6 3 -1 5 -18 5 -16 0 -22 -2 -12 -5z"/>
<path d="M2663 1963 c9 -2 23 -2 30 0 6 3 -1 5 -18 5 -16 0 -22 -2 -12 -5z"/>
<path d="M2608 1953 c6 -2 18 -2 25 0 6 3 1 5 -13 5 -14 0 -19 -2 -12 -5z"/>
<path d="M2568 1943 c7 -3 16 -2 19 1 4 3 -2 6 -13 5 -11 0 -14 -3 -6 -6z"/>
<path d="M2522 1932 c-8 -6 -2 -9 18 -9 20 0 26 3 18 9 -7 4 -15 8 -18 8 -3 0
-11 -4 -18 -8z"/>
<path d="M3718 1918 c5 -5 16 -8 23 -6 8 3 3 7 -10 11 -17 4 -21 3 -13 -5z"/>
<path d="M3615 1899 c-22 -10 -34 -19 -27 -19 15 0 72 28 72 35 0 6 3 7 -45
-16z"/>
<path d="M2445 1884 l-30 -26 33 22 c17 12 32 23 32 26 0 7 -4 5 -35 -22z"/>
<path d="M3775 1900 c27 -12 43 -12 25 0 -8 5 -22 9 -30 9 -10 0 -8 -3 5 -9z"/>
<path d="M3445 1890 c11 -5 29 -9 40 -9 l20 0 -20 9 c-11 5 -29 9 -40 9 l-20
0 20 -9z"/>
<path d="M3070 1856 c0 -2 7 -9 15 -16 13 -11 14 -10 9 4 -5 14 -24 23 -24 12z"/>
<path d="M3396 1843 c-6 -14 -5 -15 5 -6 7 7 10 15 7 18 -3 3 -9 -2 -12 -12z"/>
<path d="M2349 1813 c-13 -16 -12 -17 4 -4 9 7 17 15 17 17 0 8 -8 3 -21 -13z"/>
<path d="M3355 1795 c-16 -14 -25 -25 -19 -25 6 0 21 11 34 25 30 32 24 31
-15 0z"/>
<path d="M3950 1815 c0 -3 10 -16 21 -28 l21 -22 -11 22 c-11 22 -31 40 -31
28z"/>
<path d="M3129 1796 c13 -16 51 -41 51 -33 0 2 -15 14 -32 27 -21 15 -28 17
-19 6z"/>
<path d="M2255 1728 l-50 -53 53 50 c28 27 52 51 52 52 0 8 -9 -1 -55 -49z"/>
<path d="M3205 1750 c19 -8 73 -14 64 -6 -2 2 -22 6 -44 9 -28 5 -34 4 -20 -3z"/>
<path d="M3288 1753 c7 -3 16 -2 19 1 4 3 -2 6 -13 5 -11 0 -14 -3 -6 -6z"/>
<path d="M4000 1746 c0 -2 8 -10 18 -17 15 -13 16 -12 3 4 -13 16 -21 21 -21
13z"/>
<path d="M2174 1648 l-19 -23 23 19 c21 18 27 26 19 26 -2 0 -12 -10 -23 -22z"/>
<path d="M2948 1633 c6 -2 18 -2 25 0 6 3 1 5 -13 5 -14 0 -19 -2 -12 -5z"/>
<path d="M2858 1613 c7 -3 16 -2 19 1 4 3 -2 6 -13 5 -11 0 -14 -3 -6 -6z"/>
<path d="M2789 1573 c-13 -16 -12 -17 4 -4 9 7 17 15 17 17 0 8 -8 3 -21 -13z"/>
<path d="M2045 1528 l-40 -43 43 40 c39 36 47 45 39 45 -2 0 -21 -19 -42 -42z"/>
<path d="M3067 1562 c-16 -7 -16 -9 3 -25 11 -9 20 -28 20 -42 0 -14 5 -34 12
-44 11 -18 14 -18 40 -5 15 8 28 17 28 20 0 4 -12 28 -27 55 -26 48 -39 55
-76 41z"/>
<path d="M2762 1538 c-14 -19 -44 -79 -40 -83 2 -2 15 19 30 46 26 49 29 60
10 37z"/>
<path d="M4177 1499 c10 -17 27 -38 37 -47 11 -9 5 4 -14 31 -38 53 -50 62
-23 16z"/>
<path d="M3181 1444 c0 -11 3 -14 6 -6 3 7 2 16 -1 19 -3 4 -6 -2 -5 -13z"/>
<path d="M2680 1421 c0 -5 -10 -11 -22 -13 -16 -2 -23 -9 -22 -25 1 -20 -5
-22 -80 -28 -210 -17 -417 -65 -549 -129 -85 -41 -187 -115 -160 -116 6 0 15
5 18 10 4 6 14 9 23 8 9 -2 16 2 15 9 -4 17 103 74 123 66 11 -4 15 -3 11 5
-20 31 298 107 528 127 l70 6 -2 -223 -1 -223 -69 -63 c-37 -35 -112 -102
-167 -150 -65 -58 -93 -88 -82 -90 9 -2 14 -7 11 -12 -3 -5 0 -12 6 -16 7 -4
9 -3 5 4 -3 6 -2 13 4 17 6 4 8 10 5 14 -2 4 42 49 98 99 56 50 122 111 146
136 24 25 48 43 53 40 5 -3 7 -51 3 -107 -4 -77 -3 -106 7 -119 17 -20 98 -68
203 -121 44 -21 87 -45 95 -52 8 -7 31 -17 50 -23 49 -13 -1173 -27 -1597 -18
-182 4 -465 4 -630 0 l-298 -7 3 -83 3 -84 2670 0 2669 0 0 84 0 84 -147 7
c-82 3 -536 4 -1010 1 -511 -3 -863 -2 -863 3 0 5 46 27 101 48 67 25 104 44
107 55 5 21 13 23 30 6 9 -9 12 -9 12 0 0 7 -4 12 -9 12 -5 0 -12 7 -15 16 -3
8 -2 13 3 10 5 -4 11 16 13 42 l3 49 -88 12 c-162 23 -397 111 -397 148 0 12
10 14 41 11 32 -3 38 -1 24 7 -114 68 -128 115 -26 85 50 -14 49 -5 -4 25 -25
15 -44 32 -42 39 4 12 45 14 97 3 31 -6 27 -3 -25 26 -121 68 -44 90 116 33
55 -20 104 -36 109 -36 5 0 4 13 -1 29 -6 16 -9 44 -7 63 5 51 32 43 76 -23
20 -31 65 -93 99 -139 l62 -82 10 39 c6 21 11 50 11 65 0 23 5 28 35 34 60 11
232 -26 219 -47 -3 -5 1 -6 9 -3 8 3 35 -11 61 -30 54 -42 61 -44 44 -13 -7
12 -12 25 -13 29 0 4 -6 13 -12 19 -10 10 -13 10 -13 1 0 -7 5 -12 12 -12 6 0
9 -2 6 -5 -2 -3 -29 8 -59 25 -66 35 -156 60 -220 60 l-47 0 1 54 c1 30 5 52
10 49 4 -2 7 4 8 14 0 10 3 42 5 72 4 46 2 57 -17 77 -13 14 -33 24 -48 23
-14 0 -19 -3 -11 -6 8 -2 22 -7 30 -10 8 -3 -10 -11 -40 -17 -30 -7 -182 -41
-337 -76 l-283 -63 -2 -426 -3 -426 -45 -8 c-31 -6 -58 -4 -85 5 l-40 13 -5
429 -5 430 -240 103 c-132 57 -257 111 -277 119 -21 9 -35 20 -32 25 3 5 -2 9
-10 9 -9 0 -16 -4 -16 -9z"/>
<path d="M3106 1403 c-6 -14 -5 -15 5 -6 7 7 10 15 7 18 -3 3 -9 -2 -12 -12z"/>
<path d="M3191 1404 c0 -11 3 -14 6 -6 3 7 2 16 -1 19 -3 4 -6 -2 -5 -13z"/>
<path d="M4259 1385 c5 -11 17 -29 26 -40 l16 -20 -10 20 c-5 11 -17 29 -26
40 l-16 20 10 -20z"/>
<path d="M1865 1381 c-3 -5 0 -13 6 -17 7 -4 9 -3 5 4 -3 5 0 13 6 15 9 4 10
6 1 6 -6 1 -14 -3 -18 -8z"/>
<path d="M3176 1369 c4 -8 -1 -9 -17 -5 -23 6 -23 6 1 -5 14 -6 46 -21 72 -34
52 -25 56 -15 5 11 -18 9 -36 23 -40 30 -4 8 -13 14 -18 14 -6 0 -7 -5 -3 -11z"/>
<path d="M3778 1363 c17 -2 47 -2 65 0 17 2 3 4 -33 4 -36 0 -50 -2 -32 -4z"/>
<path d="M3688 1353 c7 -3 16 -2 19 1 4 3 -2 6 -13 5 -11 0 -14 -3 -6 -6z"/>
<path d="M3913 1353 c9 -2 23 -2 30 0 6 3 -1 5 -18 5 -16 0 -22 -2 -12 -5z"/>
<path d="M3618 1343 c7 -3 16 -2 19 1 4 3 -2 6 -13 5 -11 0 -14 -3 -6 -6z"/>
<path d="M3978 1343 c6 -2 18 -2 25 0 6 3 1 5 -13 5 -14 0 -19 -2 -12 -5z"/>
<path d="M3560 1330 c-18 -12 -2 -12 25 0 13 6 15 9 5 9 -8 0 -22 -4 -30 -9z"/>
<path d="M4028 1333 c7 -3 16 -2 19 1 4 3 -2 6 -13 5 -11 0 -14 -3 -6 -6z"/>
<path d="M4322 1275 c12 -24 23 -43 26 -41 4 5 -36 86 -43 86 -3 0 5 -20 17
-45z"/>
<path d="M1747 1292 c-15 -16 -15 -19 -2 -19 8 0 13 3 10 5 -3 3 0 11 6 19 17
20 5 16 -14 -5z"/>
<path d="M3310 1275 c13 -14 26 -25 28 -25 3 0 -5 11 -18 25 -13 14 -26 25
-28 25 -3 0 5 -11 18 -25z"/>
<path d="M3450 1290 c-8 -5 -10 -10 -5 -10 6 0 17 5 25 10 8 5 11 10 5 10 -5
0 -17 -5 -25 -10z"/>
<path d="M3395 1250 c-10 -12 -24 -19 -31 -16 -8 3 -11 -1 -7 -10 4 -12 12
-10 37 13 17 15 33 29 35 31 2 1 0 2 -6 2 -5 0 -18 -9 -28 -20z"/>
<path d="M1704 1238 l-19 -23 23 19 c21 18 27 26 19 26 -2 0 -12 -10 -23 -22z"/>
<path d="M4371 1185 c12 -19 23 -35 25 -35 2 0 -4 16 -13 35 -9 19 -20 35 -25
35 -4 0 2 -16 13 -35z"/>
<path d="M1641 1115 c-12 -31 -21 -63 -21 -73 0 -9 11 15 24 53 29 84 27 99
-3 20z"/>
<path d="M4410 1111 c0 -6 5 -13 10 -16 6 -4 8 -10 5 -15 -3 -5 3 -14 15 -20
19 -10 19 -10 -1 25 -21 36 -29 42 -29 26z"/>
<path d="M1613 940 c0 -41 2 -58 4 -37 2 20 2 54 0 75 -2 20 -4 3 -4 -38z"/>
<path d="M4500 951 c0 -6 4 -13 10 -16 6 -3 7 1 4 9 -7 18 -14 21 -14 7z"/>
<path d="M4520 915 c0 -5 5 -17 10 -25 5 -8 10 -10 10 -5 0 6 -5 17 -10 25 -5
8 -10 11 -10 5z"/>
<path d="M4541 854 c0 -11 3 -14 6 -6 3 7 2 16 -1 19 -3 4 -6 -2 -5 -13z"/>
<path d="M1622 840 c0 -14 2 -19 5 -12 2 6 2 18 0 25 -3 6 -5 1 -5 -13z"/>
<path d="M4783 853 c-46 -2 -83 -8 -83 -13 0 -6 86 -10 220 -10 207 0 221 -1
240 -20 28 -28 26 -81 -3 -108 -22 -21 -31 -22 -240 -22 -142 0 -217 -4 -217
-10 0 -7 137 -10 421 -8 l421 3 24 28 c34 40 32 90 -5 128 -29 28 -32 29 -133
29 -57 0 -206 2 -333 4 -126 2 -267 2 -312 -1z"/>
<path d="M2631 834 c0 -11 3 -14 6 -6 3 7 2 16 -1 19 -3 4 -6 -2 -5 -13z"/>
<path d="M1631 794 c0 -11 3 -14 6 -6 3 7 2 16 -1 19 -3 4 -6 -2 -5 -13z"/>
<path d="M4563 730 c0 -41 2 -58 4 -37 2 20 2 54 0 75 -2 20 -4 3 -4 -38z"/>
<path d="M1650 733 c1 -11 39 -80 40 -72 0 11 -30 79 -35 79 -3 0 -5 -3 -5 -7z"/>
<path d="M4545 619 c-4 -6 -5 -12 -2 -15 2 -3 7 2 10 11 7 17 1 20 -8 4z"/>
<path d="M4055 610 c-3 -5 -1 -10 4 -10 6 0 11 5 11 10 0 6 -2 10 -4 10 -3 0
-8 -4 -11 -10z"/>
<path d="M2170 530 c-8 -5 -10 -10 -5 -10 6 0 17 5 25 10 8 5 11 10 5 10 -5 0
-17 -5 -25 -10z"/>
<path d="M1855 490 c11 -5 29 -8 40 -8 16 0 15 2 -5 8 -34 11 -60 11 -35 0z"/>
<path d="M2038 483 c7 -3 16 -2 19 1 4 3 -2 6 -13 5 -11 0 -14 -3 -6 -6z"/>
<path d="M4431 470 c-13 -11 -19 -20 -14 -20 6 0 18 9 28 20 23 25 17 25 -14
0z"/>
<path d="M1943 473 c15 -2 37 -2 50 0 12 2 0 4 -28 4 -27 0 -38 -2 -22 -4z"/>
<path d="M2386 467 c3 -10 9 -15 12 -12 3 3 0 11 -7 18 -10 9 -11 8 -5 -6z"/>
</g>
</svg>
